being erica  |  s04e02  |  Osso Barko


This episode was broadcast 3 October 2011 on CBC. Scene group TLA really messed up the audio on their release. It  has been about half a day since their release and they have not put out a repack so here is an alternative. 

In this episode :
Erica tries to delve into Julianne's bullying nature while a new assisstant
adapts to working at 50/50 Press.

Cast :
Erin Karpluk	 ...	Erica Strange
Reagan Pasternak ...	Julianne Giacomelli
Michael Riley	 ...	Dr. Tom
Demore Barnes	 ...	Michel Streith
Kristen Gutoskie ...	Georgie Giacomelli
Jadyn Wong	 ...	Rachel


General
Complete name                    : being.erica.s04e02.Osso.Barko.READNFO.WS.XviD-jAh.avi
Format                           : AVI
Format/Info                      : Audio Video Interleave
File size                        : 350 MiB
Duration                         : 45mn 5s
Overall bit rate mode            : Variable
Overall bit rate                 : 1 086 Kbps
Writing application              : VirtualDubMod 1.5.4.1 (build 2178/release)
Writing library                  : VirtualDubMod build 2178/release

Video
ID                               : 0
Format                           : MPEG-4 Visual
Format profile                   : Simple@L3
Format settings, BVOP            : No
Format settings, QPel            : No
Format settings, GMC             : No warppoints
Format settings, Matrix          : Default (H.263)
Codec ID                         : XVID
Codec ID/Hint                    : XviD
Duration                         : 45mn 5s
Bit rate                         : 962 Kbps
Width                            : 624 pixels
Height                           : 352 pixels
Display aspect ratio             : 16:9
Frame rate                       : 23.976 fps
Color space                      : YUV
Chroma subsampling               : 4:2:0
Bit depth                        : 8 bits
Scan type                        : Progressive
Compression mode                 : Lossy
Bits/(Pixel*Frame)               : 0.183
Stream size                      : 310 MiB (89%)
Writing library                  : XviD 1.2.1 (UTC 2008-12-04)

Audio
ID                               : 1
Format                           : MPEG Audio
Format version                   : Version 1
Format profile                   : Layer 3
Mode                             : Joint stereo
Codec ID                         : 55
Codec ID/Hint                    : MP3
Duration                         : 45mn 5s
Bit rate mode                    : Variable
Bit rate                         : 111 Kbps
Nominal bit rate                 : 128 Kbps
Channel(s)                       : 2 channels
Sampling rate                    : 48.0 KHz
Compression mode                 : Lossy
Stream size                      : 35.8 MiB (10%)
Alignment                        : Aligned on interleaves
Interleave, duration             : 24 ms (0.58 video frame)
Interleave, preload duration     : 567 ms
Writing library                  : LAME3.98r
Encoding settings                : -m j -V 4 -q 2 -lowpass 17 --abr 128
